<svg xmlns="http://www.w3.org/2000/svg" viewBox="0 0 428.87 219.68"><defs><style>.cls-1{fill:#e8002c;}</style></defs><title>blanko logo</title><g id="Layer_2" data-name="Layer 2"><g id="Layer_1-2" data-name="Layer 1"><path class="cls-1" d="M73.82,213V187.78a57.88,57.88,0,0,1,8.7-.53q9.86,0,9.86,6.92V213Zm15.29-2.54V194.65a5,5,0,0,0-.41-2.12,3.67,3.67,0,0,0-1-1.36,4.35,4.35,0,0,0-1.62-.74,10.77,10.77,0,0,0-1.87-.34c-.58-.05-1.25-.07-2-.07-1.6,0-3,0-4.35.16l-.73.06v20.25Zm9.19-6V187.64h3.27V201.1L99,204.45Zm12.52-16.81,3,11.45q.56,2.52,2.36,10.55,5.78-2.12,6.57-10.92l1-11.06H127l-1,11.06a21.08,21.08,0,0,1-.74,4.34A16.68,16.68,0,0,1,124.2,206a13.06,13.06,0,0,1-1.59,2.33,11.37,11.37,0,0,1-2.3,2.08,15.24,15.24,0,0,1-3.16,1.6,19.58,19.58,0,0,1-4.17,1l-7.28,1v-2.58l7.7-1.2-6-22.63ZM135.46,213h-3.27V187.64h3.27Zm4-25.65c1.84-.09,3.49-.13,4.94-.13a21.54,21.54,0,0,1,3.64.26,10.92,10.92,0,0,1,2.7.86,7,7,0,0,1,2.13,1.51,7.73,7.73,0,0,1,1.83,5.44V213h-3.27V195.28q0-5.26-7-5.26c-1.41,0-3.05,0-4.92.14Zm21.14,17.07V187.64h3.27V201.1l-2.6,3.35Zm26.55-16.81v8.25a22.45,22.45,0,0,1-.14,2.78,12.13,12.13,0,0,1-.57,2.47,6,6,0,0,1-3.76,3.76l4.91,8.13h-3.69l-6.19-10.61-3-4.49a4.51,4.51,0,0,0-1.14.59c-1.24,1-1.87,2.71-1.87,5.08V213h-3.26v-8.25q0-4.31,1.27-6.39a6.21,6.21,0,0,1,1.43-1.59,7.09,7.09,0,0,1,2.2-1.17l-4.89-8h3.71l5.82,9.82,3.29,5.1a5,5,0,0,0,1.48-1.22,5.45,5.45,0,0,0,.81-1.71,8.89,8.89,0,0,0,.33-2.56v-9.43Zm6.89,0h13.36v2.54l-3.4,13L201.94,213h-3.3l2-9.86,3.45-13H190.76v-7.74H194Zm46.23,4.55a9.22,9.22,0,0,1,.49,3.13V213h-3.26V195.28q0-5.26-7.05-5.26-3.1,0-6.87.22l-1.38.08v-2.78q4.59-.28,8.4-.29a14.79,14.79,0,0,1,6.27,1.15A6.38,6.38,0,0,1,240.26,192.19ZM225.46,213h-3.27v-16.2h3.27Zm21.22-8.58V187.64H250V201.1l-2.6,3.35Zm8.91,0V187.64h3.27V201.1l-2.6,3.35ZM265,213.3a8.47,8.47,0,0,1-2-.27v-2.7c1,.13,1.49.2,1.6.2q2.81,0,2.81-3.35V190.4l-2.77.25v-2.77a85.58,85.58,0,0,1,9.6-.63,13.88,13.88,0,0,1,5.91,1.12,6.46,6.46,0,0,1,3.46,3.82,9.22,9.22,0,0,1,.49,3.13V213h-3.28V195.28q0-5.26-7-5.26c-.58,0-1.61,0-3.11.12v16.59a7.41,7.41,0,0,1-1.42,4.84A5.19,5.19,0,0,1,265,213.3Zm35.23-2.81a8.68,8.68,0,0,0,6.68-2.89q2.67-2.9,3.22-8.88l1-11.06h3.25l-1,11.06a20.71,20.71,0,0,1-2.07,7.77,12.9,12.9,0,0,1-1.72,2.48,11.45,11.45,0,0,1-2.41,2.11,11.83,11.83,0,0,1-3.28,1.41,15.72,15.72,0,0,1-4.24.54h-8.42l-2.11-25.39h3.31l1.18,14.19,2.62-.87c2-.65,3.18-2.48,3.48-5.47l.77-7.85h3.26l-.65,6.67c-.09.89-.21,1.7-.35,2.41A11.31,11.31,0,0,1,302,199a8.28,8.28,0,0,1-1.19,2,7.71,7.71,0,0,1-1.84,1.6,9,9,0,0,1-2.64,1.1l-2.56.69.52,6.12Zm29.74,2.81a8.41,8.41,0,0,1-2-.27v-2.7c1,.13,1.49.2,1.6.2q2.81,0,2.81-3.35V190.4l-2.77.25v-2.77a85.58,85.58,0,0,1,9.6-.63,13.83,13.83,0,0,1,5.9,1.12,6.48,6.48,0,0,1,3.47,3.82,9.22,9.22,0,0,1,.49,3.13V213h-3.29V195.28q0-5.26-7-5.26c-.58,0-1.62,0-3.11.12v16.59a7.41,7.41,0,0,1-1.42,4.84A5.19,5.19,0,0,1,329.93,213.3Zm28.58-.27h-3.27V187.64h3.27ZM381,187.64v2.24q-4.05,1.17-4.05,5.67V213h-3.27V195.55a7.57,7.57,0,0,1,.28-2.13,4.77,4.77,0,0,1,.67-1.53,4.55,4.55,0,0,1,1.45-1.47l.28-.14v-.1H362.5v-2.54Zm14.65-.39a6.82,6.82,0,0,1,5.58,2.24,9.47,9.47,0,0,1,1.85,6.18V213h-8.65v-2.54h5.39V195.81q0-5.81-5.32-5.81a5.27,5.27,0,0,0-1.82.33,5.69,5.69,0,0,0-1.5.77,9.17,9.17,0,0,0-1.83,1.74l-.24.31L387.28,213H384l1.85-19.52v-.44a14.66,14.66,0,0,0-.27-1.81,10.89,10.89,0,0,0-.69-2.4l-.51-1.22h3.29a9.08,9.08,0,0,1,.9,2.68h.14a8.29,8.29,0,0,1,2.46-2,9.82,9.82,0,0,1,2-.73A9.71,9.71,0,0,1,395.69,187.25Zm17,.39,3,11.45q.56,2.52,2.36,10.55,5.77-2.12,6.58-10.92l1-11.06h3.27l-1,11.06a21.13,21.13,0,0,1-.73,4.34A16.61,16.61,0,0,1,426,206a13.06,13.06,0,0,1-1.59,2.33,11.32,11.32,0,0,1-2.29,2.08A15.33,15.33,0,0,1,419,212a19.34,19.34,0,0,1-4.16,1l-7.29,1v-2.58l7.7-1.2-6-22.63Z"/><path d="M16.2,171.57H0V45.69H16.2Zm94.65-3.31v3.31H94.75v-3.31q0-7.12,3.22-19.37t4.69-17.52q2.82-10.83,7.22-25.37l14-47.81H47.42V45.69H140v12.5L125.39,108q-2.53,9-4.19,14.79t-3.32,11.8q-1.66,6-2.73,10.39T113,154.11Q110.85,163.66,110.85,168.26ZM63.62,219.68H47.52V96.34h16.1Zm180.5-174h66.25V58.28l-16.88,64.41-10.15,48.88H267l10.15-48.88,17.08-64.41H227.92V19.93h16.2Zm79.47-.48q15.62-1.47,36.6-1.47t31,9.13q10,9.12,10,30.88V159h14.34v12.58h-92V159h61.48V83.56q0-15-6.78-20.54T357.36,57.5q-15.14,0-28.79,1.08l-5,.39ZM186.28,43.74c-2.5,0-6.77,0-11.36,0C177.06,36.62,187.57,0,178.55,0c-10,0-11,24-12,44h0a58.72,58.72,0,0,0-10,1l1,12a25.65,25.65,0,0,1,5-.52V63h14V56.69c1.85.07,3.34.13,4.17.13q10,0,14.64,4.78,5.07,5.26,5.07,17v62.26c0,7.22,1.42,4.28.12,9.16h-63l-8,9v12.58h83.37l1-3.7a93.17,93.17,0,0,0,1.9-11.42,130.19,130.19,0,0,0,.93-15.61V77.21Q216.73,43.75,186.28,43.74Z"/><rect class="cls-1" x="166.98" y="63" width="6.59" height="67.18"/><path d="M183,100.2a87.59,87.59,0,0,0-25.46,0c-4.38.76-6.26,1.82-6.29,3.56a2.19,2.19,0,0,0,0,.29l4.31,43.77h29.35l2.32-23.31a2,2,0,0,1,0-.23l2-20.2a3.31,3.31,0,0,0,0-.34C189.28,102,187.4,101,183,100.2Zm-24.29,2.67a87.16,87.16,0,0,1,23.12,0,20.8,20.8,0,0,1,3.84.89,20.2,20.2,0,0,1-3.84.88,87.16,87.16,0,0,1-23.12,0,21,21,0,0,1-3.84-.88A20.8,20.8,0,0,1,158.71,102.87ZM182.47,144l-24.39.08-3.7-37.54a27.18,27.18,0,0,0,3.17.74,88.53,88.53,0,0,0,25.46,0,24.06,24.06,0,0,0,3.18-.74Z"/><polygon class="cls-1" points="158.19 118.49 182.15 120.54 179.99 142.34 160.55 142.41 158.19 118.49"/><rect class="cls-1" x="166.98" y="95.18" width="6.59" height="8.06"/></g></g></svg>