<svg xmlns="http://www.w3.org/2000/svg" viewBox="0 0 141.14 143.82"><defs><style>.cls-1{fill:#fff;fill-rule:evenodd;}.cls-2{fill:#e8002c;}</style></defs><title>instagram splat red</title><g id="Layer_2" data-name="Layer 2"><g id="Icons"><path class="cls-1" d="M77.47,142.12c.69-.34,3.29-.46,4.17-.91C77.38,141.53,77.38,141.37,77.47,142.12Z"/><path class="cls-1" d="M1.62,67.56a17.81,17.81,0,0,0,0,6.24C1.38,72,1.93,69.24,1.62,67.56Z"/><path class="cls-1" d="M69.52,142.05a1.37,1.37,0,0,0,.77.15l1.08-.06-.83-.16C70,141.92,69.54,141.91,69.52,142.05Z"/><path class="cls-1" d="M73.77,142l-.39.15.85.11c0-.07.39-.13.23-.18A4.09,4.09,0,0,0,73.77,142Z"/><path class="cls-1" d="M80.63,1.22l7.46,1.66,2.84.85C93,4,95,5.37,96.91,5.9l-.14-.12,2.87,1.29c.9.29,2,1,2.84,1.35,1.55.89,3.17,1.66,4.52,2.58a8.23,8.23,0,0,0,1.84,1.07l3.61,2.47c.48.21,1.24.92,1.64,1.1s.66.41.91.53a10.1,10.1,0,0,0-2.27-2l-4.27-2.92a13.33,13.33,0,0,0-3.72-2.15l-2.8-1.49A43.52,43.52,0,0,0,97.09,5.5l-1.81-.77a11.18,11.18,0,0,0-3.07-1.05l-1.14-.37a4.1,4.1,0,0,0-1-.29l-.9-.25A46.36,46.36,0,0,0,80.64.68c-.76-.11-1.2-.09-1.22.07S79.88,1.09,80.63,1.22Zm26.82,9.86.07,0a4.76,4.76,0,0,1,.93.62l-.93-.62-.08,0Z"/><path class="cls-1" d="M131.07,113.5l0,0a1.62,1.62,0,0,0-.1.18Z"/><path class="cls-1" d="M140.67,83.56v-.12a23.67,23.67,0,0,0,.43-5.69c-.06.15-.11.31-.16.46a5.53,5.53,0,0,0,0-1.16l0-.25,0-.34c0-1.54,0-3.07.05-4.7,0-.25-.09-.5-.17-.93a78.72,78.72,0,0,0-2.38-13.31l-.36-1c-1.09-3.71-2.3-7.09-3.8-10.82L133.7,45c-.16-.39-.29-.69-.41-1a4.49,4.49,0,0,0-.85-1.81c-1.22-2.28-2.23-4.79-3.76-6.39a108.14,108.14,0,0,0-7-8.5c-1.25-1.32-2-2.68-3.23-3.88s-1.45-.67-3.21-2.13-3.74-3.07-5.79-4.54l-.12.16c0-.1-.11-.25.12-.16l-.8-.56-.12.16L106,14.61l-.92-.37-.29-.14-.18-.16c-.71-.56-1.73-.9-2.1-1.38.47,0,2,.91,2.15.68-2.85-1.76-4.62-2.44-5.83-2.38-.56-.32-1.35-.72-1.29-.84.46-.38-.79-.81-2.41-1.35-1.32-.43-1.72-.32-1.67,0l-.89-.37a3.37,3.37,0,0,0-1-.39l.13.11a7.33,7.33,0,0,0-1-.41c-1.13-.41-2.94-.86-2.33-1.16s-.26-.53-1.59-.94a9.15,9.15,0,0,0-3.35-.68c1.32.42,2.87,1.19,2.37,1.47C85.32,6.2,84.66,6,84,5.88A6.72,6.72,0,0,0,82.7,4.8c-.15-.19-.3-.35-1-.51A2.08,2.08,0,0,0,80.65,3l2,.18A20.92,20.92,0,0,1,88.49,5a13.1,13.1,0,0,0,3.86,1.21l5.4,2.29a122.79,122.79,0,0,1,12.69,6.87l-.08,0c2.29,1.42,4.27,3.5,6.49,5.16a18.43,18.43,0,0,1,2.87,2.59l1,1c.7.62,1.42,1.44,2.11,2.18,2.12,2.62,4.15,4.89,5.92,7.37a3.69,3.69,0,0,0-.16-.39l.09.14.07.25a15.26,15.26,0,0,0,1.77,2.4l.3.42.25.44a34.2,34.2,0,0,0,2.53,4.52c.22.37.28.44.47.82.48,1.08,1,2.16,1.46,3,.1.24.11.24.16.22s.08,0,0-.3a25.14,25.14,0,0,0-3.59-8l-1.62-2.54A43.91,43.91,0,0,0,119,21.15a7.33,7.33,0,0,0-1.56-1.3,7.39,7.39,0,0,0-1.61-1.13l-1.51-1.23L111.9,15.4a47.66,47.66,0,0,0-11.85-7.26c-1.9-.89-4-1.53-6-2.58-1.48-.84-3.44-1.63-2.8-.64.1.21-1.19-.17-2-.42-1.52-.43-3.25-1-4.9-1.39A2.21,2.21,0,0,1,83.7,3a3,3,0,0,0-1.13-.24,2.08,2.08,0,0,1-.74-.15A42.51,42.51,0,0,0,77.5,1.39,10.69,10.69,0,0,0,75.63,1C75.54.82,75.27.67,74.5.58a7.5,7.5,0,0,0-1-.16l-.26,0H73.1l.35,0C73.27.26,72.92.17,72,.17L72,.14v0C71.87,0,71.52,0,70.9,0a1.92,1.92,0,0,1-.7,0,47.57,47.57,0,0,0-4.88.64,13.83,13.83,0,0,0-2.8.08A73.61,73.61,0,0,0,50.9,2.43V2.5l0-.07c-1.73,0-3.92.95-5.88,1.39a10.2,10.2,0,0,0-2.94.78,12,12,0,0,0-2.27.67c-1,.38-.62.51-1.22.8a3.23,3.23,0,0,0-1,.67c-.27.21-1.57.79-1.24.92.15.11.43.13,1.08,0,.28.2,1,.1,2.18-.21l.21-.13h0a1.05,1.05,0,0,0-.21.12l2.36.4c.1.27.42.43,1.44.22a18.55,18.55,0,0,0-1.6,1.07c-1.5.85-3.5,1.55-4.34,2.66-2,1.47-4.41,2.89-6,4.6l.13-.1c-.95,1-2.52,1.94-3.18,2.88h0a19.31,19.31,0,0,0-1.59,1.56l-.14.22-.26.22-2.77,2.7a15.93,15.93,0,0,0-3.4,3.41C19,29,16.52,31.66,15.13,33.83s-3.56,4.53-4.32,7l.12-.1c-.06.14-.07.13-.07.13l0,0A68.72,68.72,0,0,0,7,48.53a25.83,25.83,0,0,0-1.91,5.25q-.23.69-.42,1.38A46.26,46.26,0,0,0,2,66.38,17,17,0,0,0,1.9,71.9a.93.93,0,0,1,0,.6,6,6,0,0,0-.22,1.82c-.42,1.82,0,3.78.14,5.67l.05.07h0s0,0-.05-.07a8.47,8.47,0,0,0,.16,3H2a23.33,23.33,0,0,0,.31,3,1.35,1.35,0,0,1,.09.6,5,5,0,0,0,.18,1.91,8.44,8.44,0,0,0,1,3.37h0a8.81,8.81,0,0,0,.8,2.45c.33,1.06.63,2,.93,3a41.39,41.39,0,0,0,1.93,4.93c.26.63.51,1.27.73,1.83A11.6,11.6,0,0,0,9.37,107c.19.38.39.76.54,1.07a4.63,4.63,0,0,0,.49.9l.46.81a46.66,46.66,0,0,0,4.57,7.52c.46.62.79.91.92.82s-.09-.57-.53-1.2l-4.1-6.44-1.4-2.61c-1.26-1.67-1.74-4-2.7-5.77v.19c-.39-1-.73-1.91-1.12-3-.43-.83-.66-2.1-1-3-.13-.46-.26-.93-.4-1.39,0,.08.08.17.13.25h0c.11.2.19.33.3.54,0-.22-.07-.37-.12-.57v0a4.16,4.16,0,0,0-.06-.81A6.42,6.42,0,0,0,5,92.55h0l0,0a2.86,2.86,0,0,0,0-.62A58.68,58.68,0,0,0,7,98.32c.71,2,1.75,3.91,2.42,6.08.46,1.64,1.29,3.58,1.53,2.43.09-.22.73,1,1.11,1.7.77,1.38,1.56,3,2.48,4.45a2.18,2.18,0,0,1,.35.57,2.88,2.88,0,0,0,.64,1,2.44,2.44,0,0,1,.41.63,31.06,31.06,0,0,0,8.3,10.7,13.54,13.54,0,0,1,1.45,1.51,11.63,11.63,0,0,0,2.63,2.72,72.8,72.8,0,0,0,9.4,7v0l0,0,0,.05c1.2,1.24,3.44,2.11,5.14,3.18a10.28,10.28,0,0,0,2.63,1.53A12,12,0,0,0,47.55,143c1,.46.79.08,1.43.3a3.28,3.28,0,0,0,1.18.23c.34,0,1.67.55,1.52.23s-.21-.4-.78-.75c-.06-.33-.68-.81-1.69-1.39l-.24,0v0a.62.62,0,0,0,.23.07l-1.38-1.95c.14-.31,0-.73-1.43-1.51-.13-.28-.41-.61-.53-.92,1,.47,2.12.92,3.09,1.26s1.67.32,1.74.13c.26-.22-.92-.65-1.62-1s-1.48-.88-1.53-1.14,1.12.18,1.73.32c2.12.52,4.81,1.9,7.22,2.22,1.12.26,2.54.92,3.52.79l-.07,0,.08,0v0a24,24,0,0,0,4.74.83,1.62,1.62,0,0,1-.36-.15l.08,0,.28.13a17.69,17.69,0,0,0,4.57.39l-.15,0,.15,0v0c2.42.11,4.92.78,7.6.26,2.11-.32,5.75-.49,8.26-1s5.73-.68,8-1.87H93c.13,0,.14,0,.14,0v.05a63.8,63.8,0,0,0,14.52-5.79,48.73,48.73,0,0,0,8.69-5.24h0c.11.12.39.06.94-.35l.27-.33h0l-.28.32a2.73,2.73,0,0,0,.94-.19,15,15,0,0,1-2.12,1.57l.06-.05c-.74.42-1.76,1.21-2.48,1.51-1.65.55-3.34,2.14-5.14,3l-1.5.73c-1,.33-2.27,1.23-3.37,1.54l-1.4.57a25.64,25.64,0,0,1-5.56,2.12l-.28.12-.22,0c-5.7,1.39-9.86,2.9-14.26,3.93a72.18,72.18,0,0,0,24-7l1.64-.83a14.51,14.51,0,0,0,4.27-2.26l2.28-1.43c.76-.38,1.68-1.08,2.41-1.52a5.88,5.88,0,0,1,.69-.49,11.28,11.28,0,0,0,2.39-1.72l.74-.56c.33-.21.75-.43,1-.63l1-1a3.19,3.19,0,0,0,1-.78l.08,0h0c.14,0,.41-.21.86-.64a1.87,1.87,0,0,1,.47-.52,69.68,69.68,0,0,0,6.19-8.8,29.17,29.17,0,0,0,1.88-3.32,9.19,9.19,0,0,0,1.3-2.22c.23-.31.46-.62.71-.91,1.44-3.74,3-7.6,3.58-11.24.45-1.66,1.38-3.57,1.18-4.95.39-2.47,1.08-5.16,1-7.51ZM127.23,30.79l0,0s0,0,0-.09ZM39.69,6.33s-.13-.08.1-.2c.07-.06.23-.09.3-.14C39.89,6.15,39.67,6.28,39.69,6.33Zm8.69,136c0,.05,0,.15-.21.07-.09,0-.23-.1-.32-.11C48.11,142.27,48.36,142.34,48.38,142.28Zm88-71.37h0v-.15Zm-.44,9.49a19.48,19.48,0,0,0,0-4.39A16,16,0,0,1,135.9,80.4ZM136,51.75c-.08-.06-.23-.45-.31-.5l-.14-.58C135.73,51.06,135.92,51.53,136,51.75Zm-.58,8.73h0c0,.09,0,.34-.11.19A1.23,1.23,0,0,0,135.44,60.48Zm-1.35,14.3h0v0Zm-1.59-5.39c0,.3.12.45.08.67-.05.61-.15-.06-.25-.36C132.41,69.69,132.48,69.69,132.5,69.39ZM131.56,80h.05l0,.15C131.55,80.26,131.56,80,131.56,80Zm-14.41,37.2.35-.64c.07-1,1.38-2.86,2.37-5a24.88,24.88,0,0,1-2.37,5c0,.09-.07.21,0,.28Zm-88.75-1c-.07,0-.18-.16-.25-.19h0l-.05,0a1.83,1.83,0,0,0-.16-.16h0a1.09,1.09,0,0,1,.15.17l.06,0,.13.08Zm-12.13-3.6-.09-.11q.2.12.15-.12l0-.06.05,0c-.64-1.23-1.19-2.86-.64-2.71a37.41,37.41,0,0,0,2.14,3.22c.36.53.77,1.12,1.17,1.72.63,1.54.75,1.84.44,2.3-.39-.68-1-1.35-1.55-2.17a10.22,10.22,0,0,0-1.57-2.35C16.36,112.51,16.32,112.54,16.27,112.58Zm1.91-22.47h.06v.15Zm-.91,4.14a.43.43,0,0,0-.27-.14,2.06,2.06,0,0,1-.34,1c.08-.4.06-1,.34-1a4.18,4.18,0,0,0,.09-.85C17.21,93.67,17.13,93.85,17.27,94.25Zm-2.21,12.19-.07-.13a6.22,6.22,0,0,0,.72,1l-.06,0ZM14,99.91l-.27-.47c0-.14-.11-.29-.13-.37C13.67,99.29,13.84,99.63,14,99.91Zm-2.16-9c-.05,0-.15-.12-.26-.33l0-.15C11.61,90.68,11.74,91,11.81,90.94ZM5.53,85.2a2,2,0,0,1-.1-.27h0A.86.86,0,0,0,5.53,85.2Zm1.81,6.62c-.13,0-.06.47.09,1a3.37,3.37,0,0,1-.36-1.11C7.09,91.52,7.23,91.7,7.34,91.82ZM10.64,88a4.52,4.52,0,0,1-.46-1.41A11.72,11.72,0,0,0,10.64,88Zm.51,3.69c-.05-.47-.1-.85.06-.89C11.08,90.8,11.1,91.19,11.15,91.66ZM4.6,69.94v.14h0v-.14Zm-.41,2.81v.07s0,.05,0,.08c0,.37-.08.68-.12,1l0,.3v-.15l0-.15a5.38,5.38,0,0,1,.12-1ZM3,83.75a.17.17,0,0,0,.17-.08c0,.23,0,.37.06.6A2.48,2.48,0,0,0,3,83.75c-.18,0-.38-.33-.58-.65A2,2,0,0,1,3,83.75Zm9,18.83c.16.37.25.59.37.89a3.13,3.13,0,0,0,.41,1v-.16c.13.38.25.68.38,1,.52,1.09,1.48,2.69.84,2.47-.17-.08-.25,0-.24.14l-.56-1.11h0c0-.52-.73-1.44-1.07-2.25a8.79,8.79,0,0,0-.63-2C11.72,102.72,11.89,102.73,12,102.58ZM29.64,25s0,0,0,0h0S29.64,25,29.64,25ZM76.49,10.55v.09c0,.07-.37,0-.38.07S76.48,10.63,76.49,10.55Zm-4.58-.63c-.15,0,0,0-.07,0h-.22a6.06,6.06,0,0,1,1.26-.06C72.65,9.89,72.07,9.85,71.91,9.92Zm1,.69h-.3l-.15,0h-.17a2.79,2.79,0,0,0,.32,0v0h.3ZM122.23,99.3a.9.9,0,0,1,.21-.37l0,0C122.4,99.07,122.21,99.52,122.23,99.3Zm.16.48-.06.11,0-.13a.46.46,0,0,0-.07.07s0,0,0,0,0,0,.08-.08l0,.05Zm7.1-20.25c0,.21,0,.29-.07.57a.82.82,0,0,0-.07-.37C129.41,79.52,129.45,79.6,129.49,79.53Zm-1.35-34.81,0,.08,0-.07h0c0-.08-.07-.15-.09-.2a1.93,1.93,0,0,1-.05-.23A1.8,1.8,0,0,0,128.14,44.72Zm-.31-6.79,0,0,0,0h0l0-.07Zm-1-.86,0,0,0-.07C126.86,37.08,126.87,37.07,126.87,37.07ZM106.1,18.72a10.29,10.29,0,0,0-1.32-.67A4.42,4.42,0,0,1,106.1,18.72Zm-4.15-2a1,1,0,0,1,.32.07l.13.09A2,2,0,0,0,102,16.76Zm.45-.29c.07-.11-.22-.37-.58-.67C102.18,16.1,102.49,16.33,102.4,16.47ZM94.51,12.1l.35.17L94,12Zm-7-4.24,1.09.25.14.05a5.49,5.49,0,0,0-1.25-.24ZM74.37.6a1.06,1.06,0,0,1-.22.06v0ZM62.62,1h.16l-.66,0ZM15.31,35.18a2.44,2.44,0,0,1,0,.26h0A.5.5,0,0,1,15.31,35.18Zm-.09.41,0,0-.26.12Zm-13,42.52c0,.1,0,.2-.13.12v-.16C2.13,78.23,2.16,78.19,2.19,78.11ZM3.82,91v0h0Zm7.23,14.14c-.18-.46-.36-.91-.55-1.37l.23.33a6.48,6.48,0,0,0,.51,1.32C11.18,105.32,11.12,105.22,11.05,105.13Zm4.72,9a21.52,21.52,0,0,1-2.84-5.45c-.07-.23-.16-.46-.25-.69a6.82,6.82,0,0,1,.52,1,10.8,10.8,0,0,0,1.08,1.88c.09.12.23.21.33.32a42.71,42.71,0,0,0,4.67,5.86,1.83,1.83,0,0,1-.13.16C18.61,117.65,17.15,115.85,15.77,114.17Zm4.11-13.35c.37,0,.47-.52.3-1.43h0c.11.56.23,1.11.32,1.6C20.75,102,20.21,101.22,19.88,100.82Zm.82,12.41c.08,0-.1-.31.12-.08s0,.16.14.37Zm4.64,0,.07-.06c.06,0,.28.25.32.22S25.41,113.23,25.34,113.28Zm2,3.06c.21.12.59.56.76.62s0,0,0,.06l.26.27-.12-.1A6.79,6.79,0,0,1,27.38,116.34Zm1,13.51-.11-.13.5.45Zm2.76-1.19s0,0,0-.07c-.46-.52-.74-1-1.19-1.47L29.8,127s.08,0,0,0l.12.11c1.11.88,1.26,1.22,1.19,1.47.1.1.15.18.26.29Zm5-8.3.55.21c-.1,0,0,.18.05.26A5.66,5.66,0,0,1,36.11,120.36Zm3.59,8.09,0,0,.05.06Zm7.38.58a3,3,0,0,0,.63.17C47.5,129.14,47.45,129.23,47.08,129Zm3.61,1.9.07,0h0l-.07,0h-.12a2.41,2.41,0,0,1-1.52-.23,3.72,3.72,0,0,1-.93-.38l-.1,0-.45-.21.55.24c.32.14.63.27.93.38.52.13,1,.11,1.52.23h.06s0,0,0,0l-.58-.65-.09-.06.06,0s-.12-.11-.16-.16A16.06,16.06,0,0,1,48,128.65l0,0-1.54-1,1.37.82.19.11A6.3,6.3,0,0,1,49.87,130l.29.21L50,130.2l0,0c.48.3.93.59.58.65Zm1.79.31-.77-.33c.26.09.57.26.91.35Zm4,5.16v0h0Zm3.79-1.79c.08,0-.19-.12-.17-.17a1.12,1.12,0,0,0,.37.23Zm5.23,1.22v0l.14.05Zm3.44.49a11.3,11.3,0,0,0-1.15-.51l1.34.08C69.37,136,69.56,136.19,68.91,136.32ZM74.36,132a2.11,2.11,0,0,0,.53.15.41.41,0,0,0,.19.07v0a.59.59,0,0,1-.19-.09l-.66-.13C74.36,132,74.36,132,74.36,132Zm.7,1h.07a2,2,0,0,1-.48.14A2.61,2.61,0,0,0,75.06,133Zm11.22,5.84,0,0a.45.45,0,0,1-.22.21l.22-.21a.14.14,0,0,0,0-.12c0,.1.24.14.41.21A2.25,2.25,0,0,0,86.28,138.88ZM92.16,132c-.27.09-.62.24-.66.1-.12,0,0-.05-.21,0,0,0,0,0,0,0l.16-.06,0,.1.41-.05.25-.05.14,0v0Zm13.6-6.23c-.92.43-1.73.76-2.05.6s.48-.67,1.26-1.17c.33-.22.76-.54.5-.58-.54.11-1.28.68-1.68.63.68-.53,1.56-.83,2.28-1.41q-.25.08-.33,0l-.09,0,.06,0h0c.15,0,.3-.09.33,0a1.45,1.45,0,0,1,.45-.27c.94-.36,1.92-1.26,2.91-1.69A14.52,14.52,0,0,0,113,119.1l.06,0,.1-.09-.06,0c.83-1.15-.27-.21-1,.3l-.3.24-.17.1c-.56.14-1.51,1-2.07,1.15a62.62,62.62,0,0,0,6.78-5.92l.45-.44a.31.31,0,0,0,0,.09c-.14.27.1.08.28-.16a2.9,2.9,0,0,0,.26-.36l0,0c.38-.39.7-.76.71-1a3.09,3.09,0,0,1,.53-1.2c.54-.26,1.34-1,1.69-1-.31.51-.45.79-.42,1a26,26,0,0,0-2.1,3.52,19.19,19.19,0,0,1-1.85,3.15c-.56.63-1.07,1.25-1.56,1.86l-.4.3A81.25,81.25,0,0,1,105.76,125.78Zm3-.56.3-.17a1.66,1.66,0,0,0,.27-.13,1.14,1.14,0,0,1,.35-.16,2.14,2.14,0,0,0-.35.16A3.46,3.46,0,0,1,108.76,125.22Z"/><path class="cls-1" d="M19.24,27c-.25.72-2,2.65-2.31,3.59C19.71,27.37,19.83,27.48,19.24,27Z"/><path class="cls-1" d="M1.63,64.19c.23-.82.39-2.1.69-2.82.77-1.55.85-3.87,1.53-5.73.15-.42.35-1,.54-1.58.49-1,.74-2.47,1.3-3.47l.59-1.4a25.12,25.12,0,0,1,2.43-5.43l.11-.28.12-.19c1.78-2.93,3.16-5.51,4.47-7.92l1.13-1.68c.35-.59.63-1.13.52-1.2s0,0,0,0c.39-.68.79-1.36,1.21-2A71,71,0,0,0,5.19,49.83c-.06-.24-.3.22-.48.78-.44,1.36-1,2.75-1.32,4.09a17.47,17.47,0,0,0-1.12,4c-.21.9-.4,1.72-.6,2.63s-.42,2-.64,2.78a5,5,0,0,1-.14.83,12,12,0,0,0-.47,2.91l-.12.92c-.09.38-.23.84-.27,1.15,0,1.17,0,2.25,0,3.41a1,1,0,0,0,.05.23c.05.08.08.08.14-.15a3.62,3.62,0,0,0,.22-.93h0c.16-.53.13-1.38.24-2.07a5.32,5.32,0,0,1,0-.69,6.22,6.22,0,0,0,.37-2,7.11,7.11,0,0,1-.21.68l-.09.3v-.08c0-.06.05-.15.08-.22.08-.24.15-.47.21-.68.33-.89.24-2.6.6-3.63Z"/><path class="cls-1" d="M125.6,26.1a18.21,18.21,0,0,0-4.39-4.44C122.65,22.81,124.19,25.13,125.6,26.1Z"/><path class="cls-1" d="M133.26,37.05c.46.85,1,1.85,1.47,2.77a12.45,12.45,0,0,0,.72,1.2c.43.47.26-.13,0-.75-1-1.86-1.78-3.92-3-5.31l-.48-.73c-.4-.57-.82-1.14-1-1-.21-.07.17.51.45,1C132,35.16,132.66,36.3,133.26,37.05Z"/><path class="cls-1" d="M24.91,21.44a1.39,1.39,0,0,0-.65.44l-.72.81.7-.48C24.66,21.88,25,21.55,24.91,21.44Z"/><path class="cls-1" d="M21.91,24.46c.07-.15.1-.23.17-.39l-.68.53c.05,0-.18.36,0,.29A4.06,4.06,0,0,0,21.91,24.46Z"/><path class="cls-1" d="M135.27,106.87c-.16.21-.2-.19-.49.64-.05.17-.06.36,0,.38a6,6,0,0,0,.52-.72C135.43,106.85,135.48,106.59,135.27,106.87Z"/><path class="cls-1" d="M140.89,60.41c.21.14,0-.79-.08-1.3l-.62-3.06c-.25-.56-.4-.52-.38.09l.6,3C140.58,59.85,140.76,60.43,140.89,60.41Z"/><polygon class="cls-1" points="108.33 15.88 108.63 16.17 108.48 15.94 108.33 15.88"/><path class="cls-2" d="M85.45,109H55.69A24,24,0,0,1,31.74,85V58.8a24,24,0,0,1,24-24H85.45a24,24,0,0,1,24,24V85A24,24,0,0,1,85.45,109ZM55.69,40.17A18.65,18.65,0,0,0,37.06,58.8V85a18.65,18.65,0,0,0,18.63,18.63H85.45A18.65,18.65,0,0,0,104.08,85V58.8A18.65,18.65,0,0,0,85.45,40.17ZM70.57,93.23A21.32,21.32,0,1,1,91.89,71.91,21.34,21.34,0,0,1,70.57,93.23Zm0-37.32a16,16,0,1,0,16,16A16,16,0,0,0,70.57,55.91Zm21-9.09A4.42,4.42,0,1,0,96,51.24,4.42,4.42,0,0,0,91.57,46.82Z"/></g></g></svg>